<?xml version="1.0" encoding="UTF-8"?><svg id="Layer_1" xmlns="http://www.w3.org/2000/svg" viewBox="0 0 47.44 76.67"><defs><style>.cls-1{fill:#d5d9e2;}</style></defs><g id="SVGRepo_iconCarrier"><path class="cls-1" d="M46.07,13.06h-9.63V1.41c0-.31-.09-.63-.29-.87-.39-.5-1.03-.66-1.59-.44L.88,13.16h0c-.51.15-.87.62-.87,1.15v60.98c0,.76.62,1.38,1.38,1.38h44.69c.76,0,1.38-.62,1.38-1.38V14.44c0-.76-.62-1.38-1.38-1.38ZM33.69,3.38v9.68H8.73L33.69,3.38ZM44.69,73.92H2.75V15.81h41.94v58.1Z"/><path class="cls-1" d="M23.72,32.49c-4.92,0-9.56,1.9-13.05,5.36-3.56,3.51-5.51,8.2-5.51,13.2,0,10.24,8.33,18.57,18.57,18.57s18.57-8.33,18.57-18.57c0-5-1.96-9.69-5.51-13.2-3.5-3.46-8.13-5.36-13.05-5.36ZM12.6,39.81c1.28-1.26,2.73-2.28,4.31-3.03-2.11,3.11-3.5,7.68-3.71,12.91h-5.24c.32-3.74,1.94-7.2,4.64-9.87ZM7.97,52.43h5.24c.21,5.22,1.59,9.78,3.7,12.89-4.93-2.36-8.45-7.2-8.94-12.89ZM22.35,66.61c-3.38-1.28-6.07-7.15-6.39-14.18h6.39v14.18ZM22.35,49.68h-6.39c.31-7.03,3.01-12.9,6.39-14.18v14.18ZM25.1,35.5c3.38,1.28,6.07,7.15,6.39,14.18h-6.39v-14.18ZM25.1,66.61v-14.18h6.39c-.31,7.03-3.01,12.9-6.39,14.18ZM30.54,65.32c2.11-3.11,3.49-7.67,3.7-12.89h5.24c-.49,5.69-4.01,10.53-8.94,12.89ZM34.24,49.68c-.21-5.23-1.59-9.8-3.71-12.91,1.58.75,3.03,1.77,4.31,3.03,2.7,2.67,4.32,6.13,4.64,9.87,0,0-5.24,0-5.24,0Z"/><path class="cls-1" d="M13.15,20.8c-.76,0-1.38.62-1.38,1.38s.62,1.38,1.38,1.38h21.14c.76,0,1.38-.62,1.38-1.38s-.62-1.38-1.38-1.38c0,0-21.14,0-21.14,0Z"/><path class="cls-1" d="M25.18,27.5c0,.76.62,1.38,1.38,1.38h12.2c.76,0,1.38-.62,1.38-1.38s-.62-1.38-1.38-1.38h-12.2c-.76,0-1.38.62-1.38,1.38Z"/><path class="cls-1" d="M8.68,28.88h12.38c.76,0,1.38-.62,1.38-1.38s-.62-1.38-1.38-1.38h-12.38c-.76,0-1.38.62-1.38,1.38s.62,1.38,1.38,1.38Z"/></g></svg>